<?xml version="1.0" standalone="no"?>
<!DOCTYPE svg PUBLIC "-//W3C//DTD SVG 20010904//EN"
 "http://www.w3.org/TR/2001/REC-SVG-20010904/DTD/svg10.dtd">
<svg version="1.0" xmlns="http://www.w3.org/2000/svg"
 width="1280.000000pt" height="1280.000000pt" viewBox="0 0 1280.000000 1280.000000"
 preserveAspectRatio="xMidYMid meet">
<metadata>
Created by potrace 1.16, written by Peter Selinger 2001-2019
</metadata>
<g transform="translate(0.000000,1280.000000) scale(0.100000,-0.100000)"
fill="#000000" stroke="none">
<path d="M7445 12782 c-202 -60 -363 -227 -410 -423 -8 -35 -15 -102 -15 -149
0 -107 21 -194 67 -284 34 -66 116 -150 1147 -1183 l1111 -1113 -1620 0 c-975
0 -1688 -4 -1790 -10 -911 -55 -1774 -359 -2509 -884 -1189 -850 -1923 -2168
-2016 -3621 -123 -1919 915 -3732 2635 -4600 571 -289 1144 -450 1790 -505 71
-6 539 -10 1145 -10 1120 0 1072 -2 1188 60 144 76 239 216 263 387 16 110 6
311 -20 393 -49 156 -170 279 -330 332 l-66 23 -1065 6 c-1143 6 -1107 5
-1405 60 -688 129 -1338 469 -1847 967 -618 605 -989 1374 -1079 2237 -16 156
-16 548 0 695 111 1013 596 1890 1383 2503 530 412 1121 654 1823 744 116 14
316 17 1825 20 l1695 4 -1101 -1103 c-704 -705 -1113 -1122 -1134 -1156 -59
-95 -82 -174 -88 -297 -8 -185 39 -313 161 -441 82 -87 186 -145 307 -170 139
-29 312 -3 440 68 43 24 420 396 1688 1662 1078 1077 1648 1653 1678 1696 121
177 136 408 38 610 -35 73 -75 113 -1688 1728 -908 909 -1671 1666 -1696 1682
-25 16 -77 41 -115 56 -61 24 -87 28 -200 30 -103 3 -143 0 -190 -14z"/>
</g>
</svg>
